<svg width="2478" height="700" viewBox="0 0 2478 700" fill="none" xmlns="http://www.w3.org/2000/svg">
<path d="M324 475.864L288.255 528.303L326.645 510H405.799L365.374 620.549L349.189 665.118C346.415 672.748 343.985 681.26 340.249 688.457C338.146 692.499 334.658 696.235 330.53 698.248C315.782 705.439 252.542 688.563 235.538 682.339C238.151 681.906 245.684 680.774 247.614 679.67C269.567 667.073 334.981 607.925 336.561 584.518C336.64 583.35 336.608 582.172 336.455 581.01C336.207 579.018 335.599 577.089 334.669 575.313C330.887 568.112 324.594 566.928 317.256 565.771C266.542 557.771 223.173 532.852 189.113 494.766C199.284 486.597 209.662 482.533 221.371 476.922L253.252 461.488L324 426.977V475.864Z" fill="url(#paint0_linear_2211_1999)"/>
<path d="M396.8 490H368.595L373.849 487.495C380.797 484.17 388.771 480.187 396.8 476.264V490Z" fill="url(#paint1_linear_2211_1999)"/>
<path d="M374.203 402.488C365.268 414.942 356.37 428.395 347.699 441.098L344 446.524V417.221L374.203 402.488Z" fill="url(#paint2_linear_2211_1999)"/>
<path d="M324 377.146L214.279 426.107L213.934 425.77C214.221 423.587 217.211 418.588 218.382 416.575C228.056 399.915 242.764 384.841 258.631 373.882C269.676 366.252 283.989 360.308 296.207 354.802L324 342.295V377.146Z" fill="url(#paint3_linear_2211_1999)"/>
<path d="M396.8 324.4H435.227C433.583 325.612 431.923 326.786 430.249 327.917C420.157 334.736 408.088 339.557 397.124 344.461L358.811 361.612L344 368.221V333.288C361.584 325.35 379.184 317.445 396.8 309.576V324.4Z" fill="url(#paint4_linear_2211_1999)"/>
<path d="M474.343 280.4C469.756 288.967 463.941 297.032 457.321 304.4H416.8V300.66C432.036 293.881 447.283 287.127 462.541 280.4H474.343Z" fill="url(#paint5_linear_2211_1999)"/>
<path d="M495.211 210C475.814 220.448 451.417 231.631 432.574 240.798L344 284.105V259.03C344.709 257.993 345.41 256.969 346.104 255.962C356.663 240.692 367.149 225.37 377.562 210H495.211Z" fill="url(#paint6_linear_2211_1999)"/>
<path d="M362.267 1.45898C375.672 -4.99951 438.513 11.7497 454.64 17.2988C451.723 17.8547 448.701 18.3164 445.979 19.5596C422.191 30.4227 378.472 75.5789 363.376 97.8906C359.128 104.175 354.378 112.154 355.989 120.021C356.961 124.789 360.216 129.561 364.428 132.047C371.012 135.931 386.636 136.96 394.984 139.244C428.146 148.311 458.592 164.011 484.462 186.737C485.689 187.815 486.911 188.901 488.124 190H391.051C394.851 184.34 398.644 178.675 402.424 173.001C390.764 178.127 378.311 184.234 366.398 190H324V210.34L269.24 236.588L324.247 85.1084L339.541 41.6377C342.664 32.7229 345.453 23.2849 349.686 14.8408C352.486 9.26793 356.544 4.21611 362.267 1.45898Z" fill="url(#paint7_linear_2211_1999)"/>
<path d="M338.678 691.051C336.59 694.051 333.756 696.676 330.531 698.249C327.542 699.706 322.561 700.174 316.377 699.943C322.561 700.174 327.541 699.706 330.53 698.248C332.852 697.116 334.972 695.438 336.756 693.468C336.855 693.358 336.953 693.248 337.05 693.137C337.632 692.469 338.177 691.771 338.678 691.051ZM310.439 699.548C311.939 699.686 313.393 699.794 314.792 699.87C313.393 699.794 311.939 699.686 310.439 699.548ZM302.156 698.567C304.336 698.876 306.46 699.141 308.508 699.357C306.46 699.141 304.336 698.876 302.156 698.567ZM291.593 696.834C295.049 697.47 298.448 698.035 301.724 698.505C298.448 698.035 295.049 697.47 291.593 696.834ZM288.098 696.172C289.013 696.351 289.927 696.525 290.836 696.694C289.927 696.525 289.013 696.351 288.098 696.172ZM427.603 599.984C429.605 599.926 431.74 600.015 433.595 600.845C438.204 602.923 478.729 644.379 483.554 650.334C484.954 652.062 486.043 653.832 486.788 655.93C488.061 659.486 488.125 663.143 486.418 666.577C481.049 677.377 454.667 684.225 443.55 687.659C432.686 690.856 421.785 693.414 410.747 695.94C400.571 698.264 389.464 691.838 393.633 680.573C403.07 655.084 412.365 629.389 422.256 604.079C423.022 602.119 425.875 600.856 427.603 599.984ZM282.415 695.017C283.918 695.334 285.42 695.642 286.917 695.94C285.42 695.642 283.918 695.334 282.415 695.017ZM276.809 693.793C278.41 694.154 280.018 694.506 281.628 694.85C280.018 694.506 278.41 694.154 276.809 693.793ZM273.359 693C274.212 693.199 275.069 693.397 275.928 693.593C275.069 693.397 274.212 693.199 273.359 693ZM236.834 682.801C243.933 685.289 257.071 689.123 271.427 692.542C257.071 689.123 243.933 685.288 236.834 682.801ZM340.935 687.094C340.711 687.553 340.483 688.008 340.249 688.458C339.986 688.963 339.702 689.463 339.398 689.956L339.165 690.324C339.559 689.713 339.921 689.089 340.249 688.457C340.483 688.007 340.711 687.552 340.935 687.093V687.094ZM343.988 679.923C343.802 680.415 343.612 680.905 343.419 681.393L342.832 682.848C343.23 681.883 343.615 680.906 343.988 679.922V679.923ZM134.408 75.088C153.463 60.021 157.928 66.2787 172.819 81.2686C180.512 88.9772 188.125 96.7655 195.657 104.631C208.039 117.405 220.735 129.933 232.843 142.965C248.55 160.292 228.702 169.109 216.959 178.864C120.593 258.919 108.063 399.101 189.113 494.766C223.173 532.852 266.542 557.771 317.256 565.771C324.594 566.928 330.887 568.112 334.669 575.314C335.599 577.089 336.207 579.018 336.455 581.01C336.608 582.172 336.64 583.35 336.561 584.518C334.981 607.925 269.567 667.073 247.614 679.67C245.684 680.774 238.151 681.906 235.538 682.339C235.666 682.386 235.796 682.432 235.929 682.48C235.797 682.432 235.666 682.386 235.539 682.34C179.493 665.553 125.162 627.149 86.1584 584.176C68.4608 564.673 61.6969 556.678 89.2824 545.271C107.769 537.63 128.223 528.114 145.918 518.782C149.289 517.002 147.553 507.893 143.4 507.11C137.284 505.193 130.599 505.826 124.236 505.726L71.0724 505.182C62.6481 505.092 53.9565 505.298 45.6056 504.479C34.2373 503.305 30.3043 493.028 26.3605 483.893C6.674 437.802 -1.05967 388.354 0.115382 338.369C2.44725 235.722 54.3051 138.428 134.408 75.088ZM365.374 620.55L349.19 665.119C347.803 668.934 346.502 672.97 345.08 676.951L344.541 678.441C346.178 673.981 347.629 669.41 349.19 665.118L365.374 620.549V620.55ZM591.322 422H550.523V510H652.498C632.184 549.288 604.451 584.758 570.389 614.262C559.959 623.208 542.828 641.646 529.582 629.653C526.433 626.8 523.489 623.582 520.541 620.502C515.997 615.763 511.389 611.075 506.735 606.441C494.751 594.516 482.909 582.452 471.211 570.246C463.518 562.315 444.813 548.714 457.214 535.7C462.345 530.316 470.704 524.811 476.59 519.738C490.957 507.469 503.786 493.509 514.814 478.17C540.533 442.601 554.348 401.307 556.319 359.6H591.322V422ZM324 475.865V475.864V475.865ZM659.322 320.4H666.523C670.256 309.467 676.656 301.067 685.723 295.2C686.249 294.845 686.781 294.499 687.318 294.164C689.433 307.231 690.793 320.415 691.39 333.651C683.153 334.874 676.463 338.589 671.322 344.8C664.923 352.533 661.723 363.6 661.723 378V442H679.119C674.589 458.428 668.88 474.469 662.053 490H570.523V442H611.322V339.6H575.322V291.6H659.322V320.4ZM396.8 476.264C388.928 480.111 381.108 484.013 374.256 487.299C382.213 483.48 389.469 479.682 396.8 476.028V476.264ZM354.242 431.458C352.049 434.7 349.867 437.923 347.699 441.099V441.098C349.867 437.922 352.049 434.699 354.242 431.457V431.458ZM691.706 354.045C691.595 361.874 691.219 369.71 690.571 377.538C689.328 392.564 687.128 407.411 684.011 422H681.723V378C681.723 366.276 684.355 360.423 686.731 357.552C687.979 356.043 689.473 354.809 691.706 354.045ZM367.512 411.989C366.399 413.595 365.287 415.209 364.177 416.829C364.732 416.019 365.287 415.21 365.843 414.403L367.512 411.989ZM374.203 402.489C373.086 404.046 371.97 405.619 370.855 407.203L369.183 409.588C370.854 407.195 372.526 404.824 374.201 402.489H374.203ZM401.567 3.69052C422.72 7.79329 445.762 14.2436 454.641 17.2989C509.968 36.8551 559.5 67.1313 599.509 110.345C606.162 117.534 619.143 130.449 621.104 139.817C619.899 144.607 619.101 147.323 614.436 149.804C608.861 152.766 602.789 155.413 597.046 158.056L565.57 172.502C560.186 174.959 554.316 177.381 549.217 180.315C544.155 183.229 542.48 187.49 546.258 192.296C547.891 194.373 549.798 194.394 552.255 194.591C560.566 194.757 568.984 194.678 577.301 194.673L621.712 194.693C625.369 194.69 632.306 195.027 635.762 194.573C658.143 191.636 663.016 210.127 669.896 228.49C675.411 243.223 679.894 258.278 683.332 273.545C681.979 274.203 680.641 274.904 679.322 275.652V271.6H555.322V325.808C553.434 308.081 549.392 290.54 543.201 273.597V190H488.124C486.911 188.901 485.689 187.815 484.462 186.737C458.592 164.011 428.146 148.311 394.985 139.244C386.636 136.961 371.012 135.932 364.428 132.047C360.217 129.561 356.962 124.789 355.989 120.021C354.378 112.155 359.128 104.175 363.376 97.8907C378.472 75.579 422.192 30.4228 445.98 19.5597C448.701 18.3165 451.723 17.8548 454.64 17.2989C445.761 14.2436 422.72 7.79337 401.567 3.69052ZM432.575 240.798L344.001 284.105L432.574 240.798C433.15 240.518 433.731 240.238 434.317 239.954C433.731 240.238 433.15 240.518 432.575 240.798ZM463.387 226.023C454.678 230.221 446.023 234.317 438.096 238.13C446.023 234.317 454.678 230.221 463.387 226.023ZM324.001 190V210.34L269.241 236.587L324 210.34V190H324.001ZM523.201 232.646C519.695 227.031 515.913 221.536 511.855 216.183C510.23 214.093 508.569 212.032 506.873 210H523.201V232.646ZM473.83 220.938C472.508 221.588 471.181 222.238 469.852 222.887C471.181 222.238 472.508 221.588 473.83 220.938ZM488.716 213.432C485.206 215.255 481.581 217.089 477.896 218.924C481.581 217.089 485.206 215.255 488.716 213.432ZM495.212 210C493.613 210.861 491.98 211.726 490.319 212.596C491.98 211.726 493.613 210.861 495.211 210H495.212ZM399.398 174.347C394.17 176.691 388.81 179.206 383.432 181.775C388.81 179.206 394.17 176.691 399.398 174.347ZM285.023 4.11923C288.527 4.05273 291.855 5.03905 294.662 7.15927C296.737 8.72545 298.779 11.4837 298.887 14.1847C299.062 18.6399 273.261 86.1738 270.298 93.2794C269.656 94.8184 269.042 96.3928 267.85 97.5958C266.069 99.3921 263.407 100.602 260.842 100.443C254.431 100.045 242.853 85.9465 238.232 81.1163C232.334 74.9707 226.376 68.8829 220.36 62.8536C215.076 57.5249 205.867 49.6042 204.667 42.0733C204.02 37.9362 205.085 33.7137 207.615 30.377C215.365 20.0583 269.82 6.5573 285.023 4.11923ZM385.963 1.09872C390.029 1.63519 394.367 2.34289 398.82 3.16904C394.367 2.34286 390.029 1.63523 385.963 1.09872ZM360.922 2.16806C360.781 2.2485 360.641 2.3299 360.502 2.41318C360.641 2.32989 360.781 2.2485 360.922 2.16806ZM362.002 1.59091C361.83 1.67654 361.66 1.76386 361.491 1.85361C361.66 1.76386 361.83 1.67655 362.002 1.59091ZM363.882 0.857512C363.743 0.897618 363.607 0.93938 363.475 0.982512C363.607 0.939374 363.743 0.897624 363.882 0.857512ZM371.805 8.99872e-05C374.75 -0.00505671 378.12 0.210755 381.783 0.598723C378.12 0.210727 374.75 -0.00501624 371.805 8.99872e-05ZM367.721 0.178801C367.415 0.207975 367.116 0.240792 366.825 0.277434C367.116 0.240785 367.415 0.207982 367.721 0.178801ZM366.399 190C370.405 188.061 374.473 186.084 378.551 184.118C374.473 186.084 370.406 188.061 366.4 190H366.399Z" fill="url(#paint8_linear_2211_1999)"/>
<path d="M2395.4 495.486C2374.87 495.486 2358.2 492.152 2345.4 485.486C2332.87 478.819 2323.27 470.686 2316.6 461.086C2310.2 451.486 2306.07 442.152 2304.2 433.086L2350.6 417.886C2352.74 426.152 2357.27 433.619 2364.2 440.286C2371.14 446.686 2381.54 449.886 2395.4 449.886C2407.94 449.886 2416.47 448.019 2421 444.286C2425.8 440.286 2428.2 436.019 2428.2 431.486C2428.2 426.152 2425.4 421.486 2419.8 417.486C2414.2 413.486 2403 410.819 2386.2 409.486C2364.07 407.619 2346.34 401.752 2333 391.886C2319.67 382.019 2313 367.752 2313 349.086V346.686C2313 333.619 2316.6 322.552 2323.8 313.486C2331 304.419 2340.34 297.619 2351.8 293.086C2363.27 288.286 2375.4 285.886 2388.2 285.886C2405 285.886 2418.87 288.552 2429.8 293.886C2440.74 298.952 2449.27 305.352 2455.4 313.086C2461.8 320.819 2466.34 328.552 2469 336.286L2423.4 354.686C2421 347.486 2416.87 341.886 2411 337.886C2405.14 333.619 2397.54 331.486 2388.2 331.486C2379.94 331.486 2373.54 333.086 2369 336.286C2364.74 339.219 2362.6 342.952 2362.6 347.486C2362.6 353.886 2365.94 358.419 2372.6 361.086C2379.27 363.752 2391.4 366.152 2409 368.286C2429.27 370.419 2445.8 376.552 2458.6 386.686C2471.4 396.552 2477.8 410.419 2477.8 428.286V430.686C2477.8 450.152 2470.6 465.886 2456.2 477.886C2441.8 489.619 2421.54 495.486 2395.4 495.486Z" fill="white"/>
<path d="M2138.48 489.886C2129.41 489.886 2121.95 486.952 2116.08 481.086C2110.48 475.219 2107.68 467.752 2107.68 458.686V339.486H2048.88V291.486H2107.68V209.886H2158.08V291.486H2229.68V339.486H2158.08V429.886C2158.08 437.886 2161.68 441.886 2168.88 441.886H2222.48V489.886H2138.48Z" fill="white"/>
<path d="M1809.56 489.886V291.486H1859.96V321.086H1867.16C1871.69 309.886 1879.03 301.219 1889.16 295.086C1899.29 288.952 1911.16 285.886 1924.76 285.886C1937.56 285.886 1949.16 288.686 1959.56 294.286C1970.23 299.619 1978.63 308.152 1984.76 319.886C1991.16 331.352 1994.36 346.152 1994.36 364.286V489.886H1943.96V377.086C1943.96 362.952 1940.49 351.886 1933.56 343.886C1926.89 335.619 1917.16 331.486 1904.36 331.486C1889.69 331.486 1878.63 336.552 1871.16 346.686C1863.69 356.552 1859.96 369.886 1859.96 386.686V489.886H1809.56Z" fill="white"/>
<path d="M1657.84 495.486C1638.1 495.486 1620.64 491.352 1605.44 483.086C1590.24 474.552 1578.37 462.419 1569.84 446.686C1561.3 430.952 1557.04 412.019 1557.04 389.886V387.486C1557.04 367.219 1561.57 349.486 1570.64 334.286C1579.7 319.086 1591.7 307.219 1606.64 298.686C1621.84 290.152 1638.64 285.886 1657.04 285.886C1674.1 285.886 1688.77 288.819 1701.04 294.686C1713.3 300.552 1723.3 308.152 1731.04 317.486C1739.04 326.819 1744.9 337.086 1748.64 348.286C1752.64 359.219 1754.64 369.886 1754.64 380.286V407.086H1609.04C1609.57 418.819 1614.5 428.552 1623.84 436.286C1633.17 443.752 1644.24 447.486 1657.04 447.486C1669.57 447.486 1679.17 445.219 1685.84 440.686C1692.77 436.152 1697.57 430.952 1700.24 425.086L1743.44 449.086C1740.5 455.752 1735.57 462.686 1728.64 469.886C1721.97 477.086 1712.9 483.219 1701.44 488.286C1689.97 493.086 1675.44 495.486 1657.84 495.486ZM1609.84 363.886H1703.44C1701.84 354.552 1696.77 346.819 1688.24 340.686C1679.97 334.552 1669.44 331.486 1656.64 331.486C1644.1 331.486 1633.7 334.819 1625.44 341.486C1617.44 347.886 1612.24 355.352 1609.84 363.886Z" fill="white"/>
<path d="M1302.92 489.886V291.486H1353.32V310.686H1360.52C1362.12 303.486 1365.85 297.619 1371.72 293.086C1377.58 288.286 1385.05 285.886 1394.12 285.886C1402.92 285.886 1410.38 288.286 1416.52 293.086C1422.92 297.619 1427.05 303.486 1428.92 310.686H1436.12C1438.25 303.486 1442.78 297.619 1449.72 293.086C1456.65 288.286 1465.05 285.886 1474.92 285.886C1488.25 285.886 1498.92 290.419 1506.92 299.486C1514.92 308.286 1518.92 320.552 1518.92 336.286V489.886H1468.52V350.686C1468.52 345.086 1467.05 340.952 1464.12 338.286C1461.45 335.352 1457.85 333.886 1453.32 333.886C1448.25 333.886 1444.12 335.486 1440.92 338.686C1437.72 341.886 1436.12 346.686 1436.12 353.086V489.886H1385.72V350.686C1385.72 345.086 1384.12 340.952 1380.92 338.286C1377.98 335.352 1374.38 333.886 1370.12 333.886C1365.32 333.886 1361.32 335.486 1358.12 338.686C1354.92 341.886 1353.32 346.686 1353.32 353.086V489.886H1302.92Z" fill="white"/>
<path d="M688 569.886H672.394C672.394 569.886 680.951 560.446 688 549.899V569.886ZM717 569.886H709V521.886H717V569.886ZM749 569.886H738V521.886H749V569.886ZM784 569.886H770V521.886H784V569.886ZM820 569.886H805V521.886H820V569.886ZM865 569.886H841V521.886H865V569.886ZM918 569.886H886V521.886H918V569.886ZM973 569.886H939V521.886H973V569.886ZM1060 569.886H994V521.886H1060V569.886ZM1171 569.886H1081V521.886H1171V569.886ZM1149.19 285.886C1165.19 285.886 1177.86 288.953 1187.19 295.086C1196.79 300.953 1204.13 309.353 1209.19 320.286H1216.39V291.485H1266.79V538.686C1266.79 547.752 1263.86 555.219 1257.99 561.086C1252.39 566.952 1245.06 569.886 1235.99 569.886H1192V521.886H1205.59C1212.79 521.886 1216.39 517.886 1216.39 509.886V461.086H1209.19C1205.19 469.886 1198.53 477.886 1189.19 485.086C1180.13 492.019 1166.13 495.485 1147.19 495.485C1130.93 495.485 1116.26 491.619 1103.19 483.886C1090.13 475.886 1079.73 464.419 1071.99 449.485C1064.26 434.286 1060.39 415.886 1060.39 394.286V387.086C1060.39 365.753 1064.39 347.619 1072.39 332.686C1080.66 317.486 1091.46 305.886 1104.79 297.886C1118.39 289.886 1133.19 285.886 1149.19 285.886ZM1163.59 333.886C1148.13 333.886 1135.46 338.819 1125.59 348.686C1115.73 358.552 1110.79 371.753 1110.79 388.286V393.086C1110.79 409.619 1115.73 422.819 1125.59 432.686C1135.46 442.552 1148.13 447.485 1163.59 447.485C1179.33 447.485 1191.99 442.552 1201.59 432.686C1211.46 422.552 1216.39 409.352 1216.39 393.086V388.286C1216.39 372.02 1211.46 358.953 1201.59 349.086C1191.99 338.953 1179.33 333.886 1163.59 333.886Z" fill="white"/>
<path d="M902.272 495.486C886.539 495.486 872.005 491.486 858.672 483.486C845.339 475.486 834.672 463.886 826.672 448.686C818.672 433.486 814.672 415.219 814.672 393.886V387.486C814.672 366.419 818.539 348.286 826.272 333.086C834.005 317.886 844.272 306.286 857.072 298.286C870.139 290.019 884.405 285.886 899.872 285.886C914.005 285.886 925.339 288.286 933.872 293.086C942.672 297.886 949.605 305.352 954.672 315.486H961.872V291.486H1012.27V429.886C1012.27 437.886 1015.87 441.886 1023.07 441.886H1030.67V489.886H996.272C987.205 489.886 979.739 487.219 973.872 481.886C968.272 476.286 965.472 469.352 965.472 461.086H958.272C953.205 473.352 945.739 482.152 935.872 487.486C926.272 492.819 915.072 495.486 902.272 495.486ZM913.472 447.486C928.139 447.486 939.872 442.686 948.672 433.086C957.472 423.219 961.872 409.886 961.872 393.086V388.286C961.872 371.486 957.472 358.286 948.672 348.686C939.872 338.819 928.139 333.886 913.472 333.886C898.805 333.886 887.072 338.819 878.272 348.686C869.472 358.286 865.072 371.486 865.072 388.286V393.086C865.072 409.886 869.472 423.219 878.272 433.086C887.072 442.686 898.805 447.486 913.472 447.486Z" fill="white"/>
<path d="M570.55 489.886V441.886H611.35V339.486H575.35V291.486H659.35V320.286H666.55C670.283 309.352 676.683 300.952 685.75 295.086C694.816 288.952 705.483 285.886 717.75 285.886C737.483 285.886 753.35 292.152 765.35 304.686C777.35 316.952 783.35 335.752 783.35 361.086V369.886L731.35 374.686V369.086C731.35 358.152 728.55 349.486 722.95 343.086C717.35 336.419 708.95 333.086 697.75 333.086C686.55 333.086 677.75 336.952 671.35 344.686C664.95 352.419 661.75 363.486 661.75 377.886V441.886H707.35V489.886H570.55Z" fill="white"/>
<path d="M344.028 489.886V209.886H523.228V260.286H396.828V324.286H520.828V374.686H396.828V489.886H344.028Z" fill="white"/>
<defs>
<linearGradient id="paint0_linear_2211_1999" x1="342.162" y1="0" x2="342.162" y2="700" gradientUnits="userSpaceOnUse">
<stop/>
<stop offset="1" stop-color="#1B1B1B"/>
</linearGradient>
<linearGradient id="paint1_linear_2211_1999" x1="342.162" y1="0" x2="342.162" y2="700" gradientUnits="userSpaceOnUse">
<stop/>
<stop offset="1" stop-color="#1B1B1B"/>
</linearGradient>
<linearGradient id="paint2_linear_2211_1999" x1="342.162" y1="0" x2="342.162" y2="700" gradientUnits="userSpaceOnUse">
<stop/>
<stop offset="1" stop-color="#1B1B1B"/>
</linearGradient>
<linearGradient id="paint3_linear_2211_1999" x1="342.162" y1="0" x2="342.162" y2="700" gradientUnits="userSpaceOnUse">
<stop/>
<stop offset="1" stop-color="#1B1B1B"/>
</linearGradient>
<linearGradient id="paint4_linear_2211_1999" x1="342.162" y1="0" x2="342.162" y2="700" gradientUnits="userSpaceOnUse">
<stop/>
<stop offset="1" stop-color="#1B1B1B"/>
</linearGradient>
<linearGradient id="paint5_linear_2211_1999" x1="342.162" y1="0" x2="342.162" y2="700" gradientUnits="userSpaceOnUse">
<stop/>
<stop offset="1" stop-color="#1B1B1B"/>
</linearGradient>
<linearGradient id="paint6_linear_2211_1999" x1="342.162" y1="0" x2="342.162" y2="700" gradientUnits="userSpaceOnUse">
<stop/>
<stop offset="1" stop-color="#1B1B1B"/>
</linearGradient>
<linearGradient id="paint7_linear_2211_1999" x1="342.162" y1="0" x2="342.162" y2="700" gradientUnits="userSpaceOnUse">
<stop/>
<stop offset="1" stop-color="#1B1B1B"/>
</linearGradient>
<linearGradient id="paint8_linear_2211_1999" x1="139" y1="79.5" x2="550.5" y2="624" gradientUnits="userSpaceOnUse">
<stop stop-color="#7BC24C"/>
<stop offset="1" stop-color="#679A38"/>
</linearGradient>
</defs>
</svg>
