<svg width="1200" height="1215" viewBox="0 0 1200 1215" fill="none" xmlns="http://www.w3.org/2000/svg">
<path d="M233.167 130.261C266.223 104.123 273.969 114.978 299.803 140.983C313.147 154.355 326.353 167.865 339.42 181.509C360.9 203.669 382.923 225.403 403.928 248.01C431.177 278.069 396.746 293.362 376.374 310.286C209.2 449.16 187.463 692.343 328.068 858.297C345.712 844.126 363.715 837.077 384.028 827.342L439.335 800.568L649.156 698.218C633.656 719.823 618.22 743.16 603.178 765.196L500.056 916.475L648.542 845.684C674.015 833.493 707.427 816.197 732.909 805.582L633.84 1076.5L605.763 1153.81C600.95 1167.05 596.734 1181.82 590.254 1194.3C586.606 1201.31 580.555 1207.79 573.395 1211.29C547.809 1223.76 438.104 1194.49 408.605 1183.69C311.377 1154.57 217.128 1087.95 149.465 1013.4C118.763 979.565 107.028 965.697 154.885 945.908C186.955 932.653 222.438 916.145 253.135 899.957C258.983 896.869 255.97 881.067 248.765 879.709C238.156 876.382 226.559 877.482 215.521 877.308L123.295 876.364C108.68 876.208 93.6025 876.565 79.1152 875.144C59.3931 873.109 52.5712 855.281 45.7295 839.433C11.5776 759.476 -1.8384 673.699 0.20019 586.987C4.24529 408.92 94.2056 240.14 233.167 130.261ZM741.797 1040.82C745.271 1040.72 748.974 1040.87 752.191 1042.31C760.186 1045.91 830.49 1117.83 838.858 1128.16C841.287 1131.16 843.176 1134.23 844.469 1137.87C846.678 1144.04 846.788 1150.38 843.827 1156.34C834.514 1175.07 788.747 1186.95 769.461 1192.91C750.615 1198.46 731.705 1202.89 712.557 1207.27C694.902 1211.31 675.634 1200.16 682.866 1180.62C699.237 1136.4 715.361 1091.83 732.521 1047.92C733.85 1044.52 738.799 1042.33 741.797 1040.82ZM628.437 2.53072C651.693 -8.6725 760.707 20.383 788.683 30.0092C884.663 63.9342 970.588 116.455 1040 191.419C1051.54 203.89 1074.06 226.296 1077.46 242.547C1075.37 250.856 1073.98 255.567 1065.89 259.872C1056.22 265.01 1045.69 269.601 1035.72 274.186L981.12 299.247C971.78 303.509 961.595 307.71 952.75 312.8C943.969 317.855 941.063 325.248 947.617 333.585C950.45 337.19 953.759 337.224 958.021 337.565C972.44 337.854 987.042 337.717 1001.47 337.708L1078.51 337.743C1084.86 337.736 1096.89 338.322 1102.89 337.536C1141.71 332.438 1150.17 364.516 1162.1 396.373C1192.98 478.86 1205.23 567.158 1197.97 654.933C1184.82 813.811 1109.98 961.212 989.479 1065.59C971.385 1081.11 941.668 1113.1 918.688 1092.29C913.225 1087.34 908.12 1081.76 903.005 1076.41C895.122 1068.19 887.129 1060.06 879.054 1052.02C858.264 1031.33 837.722 1010.41 817.428 989.233C804.081 975.474 771.633 951.88 793.146 929.304C802.047 919.964 816.548 910.413 826.76 901.614C851.683 880.33 873.938 856.112 893.068 829.502C991.505 693.366 989.425 508.897 887.936 375.022C883.068 368.761 878.017 362.647 872.783 356.689C837.594 376.858 787.72 399.57 750.404 417.723L550.951 515.243C567.131 493.727 584.952 466.453 600.397 444.029C633.378 396.34 665.954 348.366 698.101 300.112C672.902 311.19 645.569 324.912 620.572 336.837L467.058 410.42L562.482 147.641L589.013 72.2309C594.43 56.7657 599.27 40.3931 606.612 25.7446C611.47 16.077 618.51 7.31364 628.437 2.53072ZM494.46 7.14107C500.54 7.02558 506.312 8.73618 511.183 12.4145C514.781 15.1314 518.324 19.9153 518.512 24.601C518.819 32.3206 474.056 149.483 468.915 161.81C467.801 164.48 466.738 167.211 464.669 169.298C461.58 172.415 456.961 174.515 452.512 174.239C441.389 173.547 421.305 149.09 413.288 140.711C403.058 130.05 392.722 119.49 382.284 109.031C373.119 99.7867 357.143 86.0464 355.062 72.9819C353.94 65.805 355.785 58.4802 360.175 52.6919C373.617 34.7912 468.087 11.3704 494.46 7.14107Z" fill="url(#paint0_linear_2217_2050)"/>
<path d="M649.143 698.219C633.642 719.824 618.206 743.161 603.164 765.197L500.042 916.475L648.528 845.685C674.002 833.494 707.413 816.197 732.896 805.582L633.826 1076.5L605.749 1153.82C600.937 1167.05 596.721 1181.82 590.24 1194.3C586.592 1201.31 580.542 1207.8 573.381 1211.29C547.795 1223.76 438.09 1194.49 408.592 1183.69C413.125 1182.94 426.193 1180.97 429.541 1179.06C467.624 1157.21 581.101 1054.6 583.842 1013.99C583.979 1011.97 583.924 1009.92 583.658 1007.91C583.227 1004.45 582.174 1001.11 580.561 998.027C573.999 985.533 563.083 983.48 550.353 981.473C462.376 967.595 387.141 924.367 328.055 858.297C345.698 844.127 363.701 837.078 384.015 827.343L439.321 800.569L649.143 698.219ZM827.409 476.019C827.318 476.795 827.253 477.729 826.914 478.434C809.7 514.786 779.487 546.484 746.388 568.857C728.88 580.687 707.945 589.05 688.925 597.556L622.459 627.309L371.731 739.192L371.131 738.605C371.63 734.819 376.817 726.148 378.848 722.656C395.63 693.755 421.145 667.604 448.671 648.593C467.831 635.357 492.66 625.045 513.856 615.494L586.115 582.98C666.238 546.764 746.554 510.963 827.043 475.578L827.409 476.019ZM628.438 2.53072C651.693 -8.6725 760.707 20.383 788.683 30.0092C783.623 30.9735 778.38 31.7744 773.659 33.9311C732.392 52.7759 656.551 131.111 630.362 169.816C622.993 180.718 614.752 194.56 617.548 208.206C619.234 216.477 624.88 224.754 632.186 229.067C643.607 235.806 670.711 237.593 685.194 241.554C742.722 257.282 795.539 284.519 840.417 323.943C851.939 334.063 863.259 344.634 872.783 356.689C837.594 376.858 787.72 399.57 750.404 417.723L550.951 515.243C567.131 493.727 584.952 466.453 600.397 444.029C633.378 396.34 665.954 348.366 698.101 300.112C672.902 311.19 645.569 324.912 620.572 336.837L467.058 410.42L562.482 147.641L589.013 72.2309C594.43 56.7658 599.27 40.3931 606.612 25.7446C611.47 16.077 618.51 7.31364 628.438 2.53072Z" fill="url(#paint1_linear_2217_2050)"/>
<defs>
<linearGradient id="paint0_linear_2217_2050" x1="197.13" y1="172.864" x2="956.438" y2="1093.61" gradientUnits="userSpaceOnUse">
<stop stop-color="#7BC24C"/>
<stop offset="1" stop-color="#679A38"/>
</linearGradient>
<linearGradient id="paint1_linear_2217_2050" x1="600.419" y1="0" x2="600.419" y2="1214.33" gradientUnits="userSpaceOnUse">
<stop stop-color="white"/>
<stop offset="1" stop-color="#F4F4F4"/>
</linearGradient>
</defs>
</svg>
